<svg xmlns="http://www.w3.org/2000/svg" xmlns:xlink="http://www.w3.org/1999/xlink" width="500" zoomAndPan="magnify" viewBox="0 0 375 374.999991" height="500" preserveAspectRatio="xMidYMid meet" version="1.0"><defs><g/></defs><rect x="-37.5" width="450" fill="#ffffff" y="-37.499999" height="449.999989" fill-opacity="1"/><rect x="-37.5" width="450" fill="#2272ff" y="-37.499999" height="449.999989" fill-opacity="1"/><g fill="#fafafa" fill-opacity="1"><g transform="translate(39.28079, 176.134502)"><g><path d="M 100.59375 0 L 100.59375 -49.46875 L 74.4375 0 L 56.1875 0 L 30.046875 -49.46875 L 30.046875 0 L 11.015625 0 L 11.015625 -70.4375 L 36.859375 -70.4375 L 65.3125 -17.125 L 93.765625 -70.4375 L 119.515625 -70.4375 L 119.515625 0 Z M 100.59375 0 "/></g></g></g><g fill="#fafafa" fill-opacity="1"><g transform="translate(169.800488, 176.134502)"><g><path d="M 66.34375 -13.84375 L 66.34375 0 L 47.46875 0 L 47.46875 -13.84375 L 2.609375 -13.84375 L 2.609375 -28.859375 L 42.96875 -70.4375 L 66.34375 -70.4375 L 66.34375 -28.859375 L 82.34375 -28.859375 L 82.34375 -13.84375 Z M 47.46875 -53.890625 L 23.21875 -28.859375 L 47.46875 -28.859375 Z M 47.46875 -53.890625 "/></g></g></g><g fill="#fafafa" fill-opacity="1"><g transform="translate(255.258603, 176.134502)"><g><path d="M 34.453125 0 L 13.234375 0 L 49.984375 -55.109375 L 2.109375 -55.109375 L 2.109375 -70.4375 L 72.4375 -70.4375 L 72.4375 -57.421875 Z M 34.453125 0 "/></g></g></g><g fill="#fafafa" fill-opacity="1"><g transform="translate(40.282506, 260.345427)"><g><path d="M 15.890625 -21.1875 C 15.890625 -18.425781 16.109375 -16.046875 16.546875 -14.046875 C 16.992188 -12.054688 17.929688 -10.421875 19.359375 -9.140625 C 20.785156 -7.867188 22.84375 -6.925781 25.53125 -6.3125 C 28.226562 -5.707031 31.804688 -5.40625 36.265625 -5.40625 L 63.984375 -5.40625 L 63.984375 0 L 35.15625 0 C 30.25 0 26.195312 -0.390625 23 -1.171875 C 19.800781 -1.960938 17.253906 -3.179688 15.359375 -4.828125 C 13.472656 -6.484375 12.160156 -8.578125 11.421875 -11.109375 C 10.679688 -13.640625 10.3125 -16.644531 10.3125 -20.125 L 10.3125 -61.296875 L 15.890625 -61.296875 Z M 15.890625 -21.1875 "/></g></g></g><g fill="#fafafa" fill-opacity="1"><g transform="translate(105.155167, 260.345427)"><g><path d="M 65.8125 0 L 65.8125 -6.78125 C 63.664062 -5.625 61.234375 -4.550781 58.515625 -3.5625 C 55.796875 -2.582031 52.925781 -1.734375 49.90625 -1.015625 C 46.882812 -0.304688 43.78125 0.238281 40.59375 0.625 C 37.414062 1.007812 34.296875 1.203125 31.234375 1.203125 C 27.242188 1.203125 23.664062 0.84375 20.5 0.125 C 17.332031 -0.582031 14.644531 -1.640625 12.4375 -3.046875 C 10.238281 -4.460938 8.546875 -6.21875 7.359375 -8.3125 C 6.171875 -10.414062 5.578125 -12.847656 5.578125 -15.609375 C 5.578125 -18.347656 6.265625 -20.765625 7.640625 -22.859375 C 9.023438 -24.960938 11 -26.796875 13.5625 -28.359375 C 16.125 -29.921875 19.210938 -31.242188 22.828125 -32.328125 C 26.441406 -33.410156 30.476562 -34.332031 34.9375 -35.09375 C 39.394531 -35.851562 44.21875 -36.476562 49.40625 -36.96875 C 54.601562 -37.457031 60.070312 -37.863281 65.8125 -38.1875 L 65.8125 -42.875 C 65.8125 -44.78125 65.453125 -46.460938 64.734375 -47.921875 C 64.023438 -49.378906 63.03125 -50.648438 61.75 -51.734375 C 60.46875 -52.816406 58.960938 -53.722656 57.234375 -54.453125 C 55.515625 -55.179688 53.648438 -55.769531 51.640625 -56.21875 C 49.628906 -56.664062 47.515625 -56.984375 45.296875 -57.171875 C 43.085938 -57.367188 40.867188 -57.46875 38.640625 -57.46875 C 35.628906 -57.46875 32.890625 -57.316406 30.421875 -57.015625 C 27.953125 -56.722656 25.644531 -56.316406 23.5 -55.796875 C 21.363281 -55.273438 19.3125 -54.671875 17.34375 -53.984375 C 15.382812 -53.296875 13.410156 -52.566406 11.421875 -51.796875 L 11.421875 -58.3125 C 15.554688 -59.414062 19.960938 -60.375 24.640625 -61.1875 C 29.328125 -62.007812 34.304688 -62.421875 39.578125 -62.421875 C 44.035156 -62.421875 48.195312 -62.039062 52.0625 -61.28125 C 55.9375 -60.519531 59.300781 -59.304688 62.15625 -57.640625 C 65.007812 -55.972656 67.253906 -53.820312 68.890625 -51.1875 C 70.523438 -48.5625 71.34375 -45.359375 71.34375 -41.578125 L 71.34375 0 Z M 65.8125 -33.234375 C 56.082031 -32.703125 47.773438 -31.941406 40.890625 -30.953125 C 34.003906 -29.972656 28.375 -28.769531 24 -27.34375 C 19.625 -25.914062 16.414062 -24.25 14.375 -22.34375 C 12.34375 -20.445312 11.328125 -18.296875 11.328125 -15.890625 C 11.328125 -13.921875 11.828125 -12.175781 12.828125 -10.65625 C 13.828125 -9.144531 15.257812 -7.875 17.125 -6.84375 C 19 -5.820312 21.273438 -5.050781 23.953125 -4.53125 C 26.628906 -4.007812 29.632812 -3.75 32.96875 -3.75 C 34.9375 -3.75 36.96875 -3.859375 39.0625 -4.078125 C 41.15625 -4.304688 43.242188 -4.617188 45.328125 -5.015625 C 47.410156 -5.421875 49.460938 -5.894531 51.484375 -6.4375 C 53.503906 -6.988281 55.40625 -7.59375 57.1875 -8.25 C 58.976562 -8.90625 60.609375 -9.601562 62.078125 -10.34375 C 63.554688 -11.09375 64.800781 -11.851562 65.8125 -12.625 Z M 65.8125 -33.234375 "/></g></g></g><g fill="#fafafa" fill-opacity="1"><g transform="translate(186.31291, 260.345427)"><g><path d="M 71.078125 -16.90625 C 71.078125 -14.53125 70.765625 -12.460938 70.140625 -10.703125 C 69.515625 -8.953125 68.644531 -7.441406 67.53125 -6.171875 C 66.414062 -4.910156 65.078125 -3.882812 63.515625 -3.09375 C 61.953125 -2.3125 60.234375 -1.6875 58.359375 -1.21875 C 56.484375 -0.757812 54.472656 -0.441406 52.328125 -0.265625 C 50.191406 -0.0859375 47.976562 0 45.6875 0 L 10.3125 0 L 10.3125 -61.296875 L 44.890625 -61.296875 C 46.640625 -61.296875 48.390625 -61.222656 50.140625 -61.078125 C 51.898438 -60.929688 53.585938 -60.65625 55.203125 -60.25 C 56.828125 -59.851562 58.332031 -59.296875 59.71875 -58.578125 C 61.101562 -57.867188 62.304688 -56.929688 63.328125 -55.765625 C 64.359375 -54.609375 65.160156 -53.210938 65.734375 -51.578125 C 66.316406 -49.941406 66.609375 -48.007812 66.609375 -45.78125 C 66.609375 -43.78125 66.363281 -42.050781 65.875 -40.59375 C 65.382812 -39.144531 64.640625 -37.898438 63.640625 -36.859375 C 62.648438 -35.816406 61.378906 -34.957031 59.828125 -34.28125 C 58.285156 -33.613281 56.472656 -33.085938 54.390625 -32.703125 C 57.359375 -32.492188 59.898438 -31.988281 62.015625 -31.1875 C 64.128906 -30.382812 65.851562 -29.3125 67.1875 -27.96875 C 68.53125 -26.632812 69.515625 -25.035156 70.140625 -23.171875 C 70.765625 -21.316406 71.078125 -19.226562 71.078125 -16.90625 Z M 61.390625 -45.6875 C 61.390625 -46.550781 61.328125 -47.410156 61.203125 -48.265625 C 61.085938 -49.128906 60.820312 -49.957031 60.40625 -50.75 C 59.988281 -51.539062 59.382812 -52.273438 58.59375 -52.953125 C 57.8125 -53.640625 56.734375 -54.226562 55.359375 -54.71875 C 53.992188 -55.207031 52.304688 -55.59375 50.296875 -55.875 C 48.296875 -56.164062 45.882812 -56.3125 43.0625 -56.3125 L 15.890625 -56.3125 L 15.890625 -34.890625 L 43.0625 -34.890625 C 47.070312 -34.890625 50.28125 -35.175781 52.6875 -35.75 C 55.101562 -36.332031 56.957031 -37.113281 58.25 -38.09375 C 59.539062 -39.082031 60.382812 -40.226562 60.78125 -41.53125 C 61.1875 -42.84375 61.390625 -44.226562 61.390625 -45.6875 Z M 65.234375 -17 C 65.234375 -19.320312 64.832031 -21.300781 64.03125 -22.9375 C 63.226562 -24.570312 61.992188 -25.910156 60.328125 -26.953125 C 58.660156 -27.992188 56.515625 -28.757812 53.890625 -29.25 C 51.273438 -29.738281 48.171875 -29.984375 44.578125 -29.984375 L 15.890625 -29.984375 L 15.890625 -5.046875 L 45.328125 -5.046875 C 49.046875 -5.046875 52.175781 -5.257812 54.71875 -5.6875 C 57.257812 -6.113281 59.3125 -6.8125 60.875 -7.78125 C 62.4375 -8.75 63.550781 -9.988281 64.21875 -11.5 C 64.894531 -13.019531 65.234375 -14.851562 65.234375 -17 Z M 65.234375 -17 "/></g></g></g><g fill="#fafafa" fill-opacity="1"><g transform="translate(262.78591, 260.345427)"><g><path d="M 59.828125 -52.25 C 58.671875 -52.8125 57.332031 -53.410156 55.8125 -54.046875 C 54.300781 -54.691406 52.566406 -55.265625 50.609375 -55.765625 C 48.660156 -56.273438 46.46875 -56.703125 44.03125 -57.046875 C 41.59375 -57.390625 38.890625 -57.5625 35.921875 -57.5625 C 32.316406 -57.5625 29.109375 -57.351562 26.296875 -56.9375 C 23.484375 -56.519531 21.101562 -55.867188 19.15625 -54.984375 C 17.207031 -54.109375 15.71875 -53 14.6875 -51.65625 C 13.664062 -50.320312 13.15625 -48.734375 13.15625 -46.890625 C 13.15625 -45.347656 13.640625 -43.992188 14.609375 -42.828125 C 15.578125 -41.671875 16.882812 -40.644531 18.53125 -39.75 C 20.1875 -38.863281 22.117188 -38.054688 24.328125 -37.328125 C 26.546875 -36.597656 28.894531 -35.910156 31.375 -35.265625 C 33.863281 -34.628906 36.425781 -33.984375 39.0625 -33.328125 C 41.695312 -32.671875 44.253906 -31.960938 46.734375 -31.203125 C 49.222656 -30.453125 51.570312 -29.609375 53.78125 -28.671875 C 56 -27.734375 57.929688 -26.640625 59.578125 -25.390625 C 61.234375 -24.140625 62.546875 -22.707031 63.515625 -21.09375 C 64.484375 -19.488281 64.96875 -17.632812 64.96875 -15.53125 C 64.96875 -13.238281 64.535156 -11.234375 63.671875 -9.515625 C 62.804688 -7.804688 61.632812 -6.332031 60.15625 -5.09375 C 58.6875 -3.863281 56.960938 -2.835938 54.984375 -2.015625 C 53.003906 -1.203125 50.890625 -0.554688 48.640625 -0.078125 C 46.398438 0.390625 44.082031 0.71875 41.6875 0.90625 C 39.300781 1.101562 36.945312 1.203125 34.625 1.203125 C 29.300781 1.203125 24.472656 0.816406 20.140625 0.046875 C 15.816406 -0.722656 11.691406 -1.78125 7.765625 -3.125 L 7.765625 -9.953125 C 11.804688 -7.535156 16.078125 -5.878906 20.578125 -4.984375 C 25.085938 -4.097656 29.828125 -3.65625 34.796875 -3.65625 C 38.304688 -3.65625 41.546875 -3.863281 44.515625 -4.28125 C 47.492188 -4.695312 50.066406 -5.359375 52.234375 -6.265625 C 54.410156 -7.171875 56.097656 -8.351562 57.296875 -9.8125 C 58.503906 -11.269531 59.109375 -13.054688 59.109375 -15.171875 C 59.109375 -16.867188 58.625 -18.351562 57.65625 -19.625 C 56.695312 -20.90625 55.390625 -22.03125 53.734375 -23 C 52.085938 -23.96875 50.15625 -24.820312 47.9375 -25.5625 C 45.71875 -26.3125 43.375 -27.003906 40.90625 -27.640625 C 38.4375 -28.273438 35.882812 -28.894531 33.25 -29.5 C 30.625 -30.113281 28.078125 -30.773438 25.609375 -31.484375 C 23.140625 -32.203125 20.796875 -33.007812 18.578125 -33.90625 C 16.367188 -34.800781 14.4375 -35.847656 12.78125 -37.046875 C 11.132812 -38.253906 9.828125 -39.644531 8.859375 -41.21875 C 7.890625 -42.800781 7.40625 -44.632812 7.40625 -46.71875 C 7.40625 -48.769531 7.789062 -50.585938 8.5625 -52.171875 C 9.332031 -53.765625 10.394531 -55.140625 11.75 -56.296875 C 13.101562 -57.460938 14.6875 -58.4375 16.5 -59.21875 C 18.320312 -60.007812 20.265625 -60.632812 22.328125 -61.09375 C 24.398438 -61.5625 26.550781 -61.898438 28.78125 -62.109375 C 31.007812 -62.316406 33.207031 -62.421875 35.375 -62.421875 C 37.757812 -62.421875 40.015625 -62.316406 42.140625 -62.109375 C 44.265625 -61.898438 46.316406 -61.625 48.296875 -61.28125 C 50.273438 -60.9375 52.207031 -60.539062 54.09375 -60.09375 C 55.988281 -59.644531 57.898438 -59.171875 59.828125 -58.671875 Z M 59.828125 -52.25 "/></g></g></g></svg>